<?xml version="1.0" encoding="UTF-8" standalone="no"?>
<!-- Created with Inkscape (http://www.inkscape.org/) -->

<svg
   width="40.271961mm"
   height="71.577019mm"
   viewBox="0 0 40.271961 71.577018"
   version="1.1"
   id="svg1"
   xml:space="preserve"
   inkscape:version="1.3.2 (091e20e, 2023-11-25, custom)"
   sodipodi:docname="TUS.svg"
   xmlns:inkscape="http://www.inkscape.org/namespaces/inkscape"
   xmlns:sodipodi="http://sodipodi.sourceforge.net/DTD/sodipodi-0.dtd"
   xmlns="http://www.w3.org/2000/svg"
   xmlns:svg="http://www.w3.org/2000/svg"><sodipodi:namedview
     id="namedview1"
     pagecolor="#ffffff"
     bordercolor="#000000"
     borderopacity="0.25"
     inkscape:showpageshadow="2"
     inkscape:pageopacity="0.0"
     inkscape:pagecheckerboard="0"
     inkscape:deskcolor="#d1d1d1"
     inkscape:document-units="mm"
     inkscape:zoom="0.35856832"
     inkscape:cx="647.01756"
     inkscape:cy="391.83606"
     inkscape:window-width="1920"
     inkscape:window-height="1001"
     inkscape:window-x="-9"
     inkscape:window-y="-9"
     inkscape:window-maximized="1"
     inkscape:current-layer="layer1" /><defs
     id="defs1"><clipPath
       clipPathUnits="userSpaceOnUse"
       id="clipPath52"><path
         id="path53"
         style="fill:#ff0000;fill-opacity:1;fill-rule:nonzero;stroke:none;stroke-width:0.264583"
         d="m 54.054581,150.14691 v 71.57702 h 40.271962 v -71.57702 z m 19.514056,16.40571 c 0.590028,-0.0118 1.187685,0.16301 1.721342,0.41497 0.819195,0.38678 1.077621,0.89047 1.522386,1.5446 0.589145,1.11014 0.94483,2.3198 1.287261,3.52589 0.256842,-0.0122 0.512877,-0.0216 0.76481,-0.0269 0.434303,-0.009 0.617366,0.61316 0.895038,0.94723 0.172323,0.2073 0.686647,1.08661 0.814935,1.30069 0.936448,1.51272 1.760982,3.0863 2.478403,4.71341 0.381431,0.92657 0.760595,1.85499 1.107426,2.79518 0.380773,1.02381 0.510942,1.90878 0.166397,3.01428 -0.124288,0.3988 -0.326636,0.78021 -0.58756,1.1064 -0.110091,0.13762 -0.237088,0.25957 -0.368454,0.37723 v 5.3e-4 c -0.09376,0.34628 -0.208939,0.71166 -0.449585,0.97772 -0.491731,0.54367 -0.993643,1.1945 -1.698088,1.39733 -0.0846,0.0244 -0.151133,0.0368 -0.22996,0.0574 3.507338,0.4652 4.441785,3.4115 2.321306,5.15214 0.455009,0.48849 0.551484,1.14401 0.744659,2.00556 0.0085,0.15706 0.02326,0.31402 0.02582,0.47129 0.01058,0.64381 -0.101057,1.29093 -0.286803,1.90479 -0.06153,0.15552 -0.114855,0.31407 -0.184486,0.46613 -0.318362,0.69519 -0.798697,1.30286 -1.344104,1.83296 -0.634532,0.472 -0.929897,0.79172 -1.742527,0.96893 -0.637757,0.13908 -1.230474,0.13948 -1.778704,0.009 -0.103624,0.0178 -0.207187,0.0362 -0.312642,0.0522 -0.761016,0.11192 -1.528744,0.16159 -2.296502,0.19689 -1.014314,0.0627 -2.022848,-0.0876 -3.018935,-0.26097 -0.848876,-0.15725 -1.675943,-0.40828 -2.502691,-0.65267 -0.93345,-0.27146 -1.837463,-0.62422 -2.718181,-1.03353 -0.694717,-0.34921 -1.387663,-0.70018 -2.092378,-1.02888 -0.573411,-0.26862 -1.143373,-0.54426 -1.713074,-0.82062 -0.540806,-0.27878 -1.070549,-0.58927 -1.535824,-0.98444 -0.109017,-0.0926 -0.210389,-0.1932 -0.315741,-0.2899 -0.781637,-0.81563 -1.302964,-1.86352 -1.278993,-3.01894 0.0064,-0.30931 0.0797,-0.61354 0.119372,-0.92036 0.20928,-0.78221 0.52066,-1.31653 1.028361,-1.84174 -0.140906,-0.50709 -0.167306,-1.01295 -0.0677,-1.6831 0.03747,-0.25205 0.134168,-0.4896 0.234611,-0.72606 -0.286774,-0.86116 -0.33569,-2.0115 -0.01603,-3.43441 0.288975,-1.28629 0.892857,-2.46437 1.546158,-3.59823 0.583674,-0.95521 1.183209,-1.90028 1.7539,-2.8634 0.614254,-1.0781 1.275707,-2.12761 1.936316,-3.17758 0.460406,-0.78304 0.762497,-1.64282 1.089855,-2.48615 0.363191,-0.93564 0.191974,-0.50099 0.54777,-1.38906 0.303996,-0.79349 0.708996,-1.53991 1.104326,-2.28979 0.118234,-0.21816 0.205028,-0.44967 0.303858,-0.67696 0.0691,-0.12987 0.110328,-0.2794 0.207737,-0.38964 0.873774,-0.98889 1.365211,-1.61018 2.816884,-1.63918 z m -4.295863,20.43132 c -0.02823,0.005 -0.05894,0.0101 -0.08733,0.0155 0.05454,0.0165 0.107487,0.0379 0.161747,0.0553 -0.02349,-0.0243 -0.0519,-0.046 -0.07441,-0.0708 z m 7.063653,0.65732 c -0.641321,0.184 -1.286063,0.36211 -1.944068,0.46922 -0.242793,0.0395 -0.487749,0.0627 -0.73174,0.0941 -0.73256,0.094 -1.388393,0.0817 -1.96887,-0.0109 0.09266,0.0601 0.18829,0.11458 0.279053,0.1788 0.144828,0.10248 0.299924,0.19386 0.427363,0.31729 0.07106,0.0688 0.152546,0.13354 0.236162,0.19793 0.107646,-0.006 0.215323,-0.0116 0.322977,-0.0171 0.150558,-0.005 0.303302,-0.002 0.455787,-5.3e-4 0.37715,-0.12982 0.670541,-0.16671 1.314648,-0.3018 0.425749,-0.005 0.853276,-0.0526 1.27744,-0.0155 0.191622,0.0168 0.387856,0.0517 0.585494,0.0941 0.215474,-0.008 0.426583,-0.0126 0.817523,-0.0124 0.467381,2.5e-4 0.934776,0.0117 1.401982,0.0253 -0.317884,-0.15541 -0.629251,-0.37751 -1.037664,-0.64285 -0.101407,-0.0939 -0.204089,-0.18656 -0.304374,-0.28163 -0.02716,-0.001 -0.05451,-0.002 -0.08165,-0.003 -0.35026,-0.0233 -0.700426,-0.0545 -1.050065,-0.0909 z m -6.742742,0.75551 c -0.0079,5.3e-4 -0.0181,0.003 -0.02376,0.004 -0.0084,0.002 -0.01688,0.003 -0.02532,0.005 0.02866,0.01 0.05221,0.0137 0.05995,-0.003 0.0026,-0.006 -0.003,-0.007 -0.01085,-0.006 z" /></clipPath></defs><g
     inkscape:label="Layer 1"
     inkscape:groupmode="layer"
     id="layer1"
     transform="translate(-54.054581,-150.14691)"><g
       id="g71"
       inkscape:label="WARNING"
       inkscape:export-filename="..\..\Pictures\STREET CRISIS\THE UNDERGROUND SCENE.png"
       inkscape:export-xdpi="96"
       inkscape:export-ydpi="96"
       style="display:inline"><g
         id="g70"
         inkscape:label="YELLOW"><path
           style="display:inline;fill:#232323;fill-opacity:1;stroke:#000000;stroke-width:0.2;stroke-dasharray:none;stroke-opacity:1"
           d="m 81.815547,221.22566 c -1.80389,-0.27501 -3.25846,-0.58481 -3.43855,-0.73236 -0.17167,-0.14065 -0.69172,-1.05857 -1.15567,-2.03982 -0.46395,-0.98126 -0.95931,-1.88018 -1.1008,-1.9976 -0.22836,-0.18952 -10.29603,-1.60673 -11.46613,-1.61407 -0.36235,-0.002 -0.70312,0.28745 -1.56819,1.33327 -1.69642,2.05086 -1.3995,1.9654 -5.18556,1.49253 -3.38765,-0.42311 -3.84614,-0.58398 -3.84614,-1.34945 0,-0.22712 0.91523,-5.61124 2.03384,-11.9647 1.11862,-6.35346 2.27683,-12.94567 2.57381,-14.64935 0.29698,-1.70368 0.69587,-3.97378 0.88641,-5.04466 0.19055,-1.07089 0.61868,-3.50029 0.9514,-5.39867 1.36363,-7.78044 1.93169,-11.01433 3.01597,-17.16955 0.62595,-3.55339 1.26168,-7.30345 1.41274,-8.33348 0.31184,-2.12628 0.54717,-2.92476 0.90215,-3.06098 1.39865,-0.53671 12.10334,-0.75279 15.74805,-0.31788 2.8619,0.3415 5.96633,0.88084 6.15478,1.06929 0.0905,0.0905 0.47707,2.62177 0.85905,5.62505 0.38198,3.00328 1.09121,8.56696 1.57608,12.36374 0.48486,3.79677 1.32163,10.3681 1.85948,14.60296 1.20952,9.52332 1.58444,12.44192 2.04204,15.89636 0.35702,2.6951 0.34599,3.29289 -0.0635,3.44338 -0.11799,0.0434 -1.28983,-0.0253 -2.6041,-0.15259 -1.31426,-0.12729 -2.60251,-0.23506 -2.86276,-0.23949 -0.26025,-0.004 -0.71037,-0.20764 -1.00026,-0.45156 l -0.52707,-0.44351 -0.10068,1.99231 c -0.0554,1.09576 -0.14567,5.31845 -0.20064,9.38374 -0.055,4.06529 -0.14142,7.49947 -0.19209,7.63151 -0.11022,0.28723 -0.85411,0.64999 -1.27577,0.62213 -0.16579,-0.011 -1.70833,-0.23439 -3.42787,-0.49655 z m 4.24756,-0.0676 c 0.12738,-0.15348 0.25277,-3.85079 0.37668,-11.1071 0.10217,-5.98237 0.26272,-15.29776 0.35678,-20.70085 0.37203,-21.36851 0.59885,-37.69697 0.52459,-37.76396 -0.15899,-0.14344 -5.43706,-0.84197 -7.76303,-1.02741 -2.74753,-0.21905 -9.5782,-0.10323 -11.96269,0.20284 -1.00602,0.12913 -1.66916,0.30254 -1.79958,0.47059 -0.11359,0.14637 -0.25827,0.67813 -0.32151,1.18171 -0.11166,0.88917 -1.7907,10.692 -2.65803,15.51855 -0.23618,1.31426 -1.07609,6.09342 -1.86646,10.62033 -1.51742,8.69104 -3.23549,18.479 -5.29551,30.16885 -1.23806,7.0255 -1.36739,7.96949 -1.11308,8.12427 0.27362,0.16653 6.2856,0.85192 6.6564,0.75886 0.21265,-0.0534 0.90279,-0.7358 1.53365,-1.51651 0.63085,-0.78071 1.3193,-1.46773 1.52988,-1.52673 0.21059,-0.059 1.04694,-0.0237 1.85856,0.0784 6.00753,0.7558 9.80047,1.29892 10.06691,1.44151 0.17235,0.0922 0.76054,1.08386 1.3071,2.2036 0.74552,1.52736 1.09245,2.05917 1.38889,2.12905 0.74243,0.17501 5.88107,0.93859 6.43592,0.95635 0.30447,0.01 0.63951,-0.0858 0.74453,-0.21235 z m -5.47491,-22.0284 c -0.0401,-0.31075 0.0373,-1.58576 0.12258,-2.01941 0.0843,-0.42817 0.16424,-0.46953 0.88675,-0.45861 0.61098,0.009 0.77185,0.0701 0.69751,0.26383 -0.0531,0.13851 -0.0966,0.32497 -0.0966,0.41436 0,0.0894 -0.15078,0.16253 -0.33507,0.16253 -0.39378,0 -0.54996,0.33084 -0.54996,1.16501 0,0.48704 -0.069,0.60504 -0.35401,0.60504 -0.1947,0 -0.36173,-0.0597 -0.37116,-0.13275 z m -2.57853,-0.49977 c -0.37951,-0.37952 -0.43813,-0.5641 -0.35135,-1.10629 0.19358,-1.20928 1.34084,-1.65352 2.15855,-0.83582 0.53747,0.53747 0.56416,1.29998 0.0676,1.93124 -0.48674,0.61879 -1.26239,0.62329 -1.87481,0.0109 z m 1.46644,-0.71684 c 0.11474,-0.45718 -0.18028,-0.95171 -0.56776,-0.95171 -0.33058,0 -0.62719,0.61639 -0.48359,1.00496 0.25672,0.69472 0.87143,0.66358 1.05135,-0.0533 z m -4.34509,0.35196 c -0.4214,-0.53572 -0.43947,-0.68852 -0.17216,-1.45533 0.43966,-1.26123 2.46039,-0.89294 2.46039,0.44841 0,0.47601 -0.29574,1.1335 -0.60177,1.33784 -0.45602,0.3045 -1.31999,0.13497 -1.68646,-0.33092 z m 1.4826,-0.65715 c 0.12925,-0.36572 0.10185,-0.54113 -0.11903,-0.76201 -0.43565,-0.43565 -0.8454,-0.17504 -0.8454,0.5377 0,0.91959 0.66412,1.07406 0.96443,0.22431 z m -2.96263,0.79801 c -0.0289,-0.0643 0.0189,-0.85377 0.10621,-1.75429 0.13901,-1.43353 0.20053,-1.6373 0.49436,-1.6373 0.37055,0 0.39999,0.38047 0.18363,2.37346 -0.0877,0.80764 -0.18395,1.05609 -0.4226,1.09052 -0.16998,0.0245 -0.3327,-0.008 -0.3616,-0.0724 z m -1.33637,-1.09084 c 0.033,-0.5843 2.3e-4,-1.06221 -0.0728,-1.06204 -0.073,1.8e-4 -0.13276,-0.11915 -0.13276,-0.26518 0,-0.14603 0.0608,-0.26551 0.13503,-0.26551 0.0743,0 0.21366,-0.17922 0.30976,-0.39826 0.20869,-0.47568 1.14826,-0.67354 1.14826,-0.24181 0,0.14766 -0.13939,0.34966 -0.30976,0.44889 -0.17191,0.10012 -0.21129,0.18281 -0.0885,0.1858 0.31108,0.008 0.27645,0.47734 -0.0442,0.60041 -0.19173,0.0736 -0.26551,0.37395 -0.26551,1.08097 0,0.87496 -0.0393,0.97908 -0.36973,0.97908 -0.34057,0 -0.36501,-0.0838 -0.30976,-1.06235 z m -2.75942,0.4121 c -0.0625,-0.16293 -0.062,-0.64084 10e-4,-1.06203 0.077,-0.51334 0.0499,-0.76579 -0.0823,-0.76579 -0.1084,0 -0.1971,-0.11948 -0.1971,-0.26551 0,-0.14603 0.0797,-0.26551 0.17701,-0.26551 0.0974,0 0.177,-0.11478 0.177,-0.25506 0,-0.32867 0.25174,-0.4811 0.58399,-0.3536 0.15657,0.0601 0.22589,0.23829 0.17233,0.44308 -0.0493,0.18842 -6.4e-4,0.34258 0.10807,0.34258 0.23062,0 0.2695,0.47356 0.046,0.56052 -0.23318,0.0907 -0.42981,1.38655 -0.2104,1.38655 0.10177,0 0.18503,0.11947 0.18503,0.2655 0,0.36878 -0.81756,0.34264 -0.96083,-0.0307 z m -2.39538,-0.26815 c -0.42973,-0.46126 -0.45947,-1.03265 -0.0909,-1.74547 0.51925,-1.00413 2.03102,-0.54189 2.03102,0.62102 0,0.48296 -0.0207,0.49351 -0.79653,0.40606 -0.82842,-0.0934 -0.98315,0.0225 -0.53102,0.39775 0.21071,0.17488 0.31984,0.17527 0.52877,0.002 0.14479,-0.12017 0.39459,-0.16809 0.55511,-0.10649 0.26726,0.10256 0.26513,0.14152 -0.0252,0.46232 -0.42101,0.4652 -1.21989,0.44748 -1.67132,-0.0371 z m 1.18789,-1.42692 c -0.0406,-0.12169 -0.17995,-0.22126 -0.30976,-0.22126 -0.1298,0 -0.26919,0.0996 -0.30976,0.22126 -0.0439,0.13162 0.0816,0.22126 0.30976,0.22126 0.22814,0 0.35363,-0.0896 0.30976,-0.22126 z m -3.31885,0.40871 c 0,-1.15512 -0.25324,-1.57513 -0.40439,-0.6707 -0.16514,0.98808 -0.45347,1.54528 -0.79965,1.54528 -0.27265,0 -0.36329,-0.23068 -0.53905,-1.37179 -0.11621,-0.75449 -0.25876,-1.55102 -0.31678,-1.77006 -0.0837,-0.31589 -0.0319,-0.39826 0.25023,-0.39826 0.39891,0 0.5706,0.31956 0.5706,1.06203 0,1.0711 0.22561,1.13936 0.52079,0.15758 0.22287,-0.74124 0.37448,-0.96672 0.67956,-1.01067 0.32577,-0.0469 0.39303,0.0285 0.39465,0.44252 0.001,0.27449 0.0531,0.80856 0.11555,1.18681 l 0.1136,0.68773 0.33338,-1.08599 c 0.26036,-0.84813 0.40952,-1.086 0.68098,-1.086 0.19117,0 0.34844,0.0597 0.34948,0.13275 0.001,0.073 -0.25783,0.82895 -0.57527,1.67985 -0.49008,1.31369 -0.63725,1.54736 -0.97542,1.5488 -0.36851,0.002 -0.39826,-0.0769 -0.39826,-1.04988 z m 15.40448,-1.80054 c -0.42369,-0.16909 -0.70472,-0.4588 -0.71031,-0.73224 -0.004,-0.19877 0.84453,-0.16009 0.97082,0.0443 0.10421,0.16862 0.79653,0.25812 0.79653,0.10298 0,-0.0407 0.0444,-0.18985 0.0988,-0.33143 0.075,-0.19555 -0.01,-0.23662 -0.35368,-0.17091 -0.25729,0.0492 -0.64348,-0.0387 -0.8953,-0.20366 -0.9905,-0.64901 -0.23917,-3.01316 0.85044,-2.676 0.21355,0.0661 0.60782,0.14107 0.87615,0.16664 0.26833,0.0256 0.52206,0.0807 0.56383,0.12247 0.0778,0.0778 -0.17769,2.42991 -0.33585,3.09232 -0.0849,0.35546 -0.77397,0.79443 -1.21095,0.7714 -0.11711,-0.006 -0.40981,-0.0898 -0.65045,-0.18582 z m 1.23762,-2.11072 c 0.226,-0.42228 0.0909,-0.98121 -0.2707,-1.11998 -0.28846,-0.11069 -0.79491,0.32403 -0.79491,0.68232 0,0.80432 0.71272,1.09705 1.06561,0.43766 z m -3.07951,-0.27417 c 0.11199,-1.15297 0.10858,-1.16523 -0.30822,-1.10629 -0.3663,0.0518 -0.44147,0.19283 -0.57431,1.07739 -0.12395,0.82535 -0.21598,1.01778 -0.48677,1.01778 -0.36922,0 -0.42693,-0.511 -0.22452,-1.98776 l 0.1094,-0.79814 0.93847,-0.008 c 1.3176,-0.0118 1.52333,0.25446 1.38025,1.78665 -0.10238,1.09631 -0.14185,1.18469 -0.52909,1.18469 -0.40906,0 -0.41592,-0.0262 -0.30521,-1.16589 z m -4.13704,0.69465 c -0.14167,-0.0572 -0.22126,-0.46227 -0.22126,-1.12612 0,-0.57026 -0.0635,-1.07611 -0.14121,-1.1241 -0.33381,-0.20631 -0.64987,0.28469 -0.73796,1.1464 -0.0715,0.69949 -0.16925,0.93401 -0.40342,0.96785 -0.44523,0.0643 -0.47117,-0.0518 -0.33967,-1.52053 0.10671,-1.19184 0.1538,-1.31845 0.47213,-1.26951 0.19448,0.0299 0.64791,0.0469 1.00762,0.0377 0.89067,-0.0228 1.10168,0.39728 0.94317,1.87745 -0.12004,1.12092 -0.15511,1.1821 -0.5794,1.0109 z m 1.08222,-0.704 c 0.0619,-0.45168 0.11256,-1.0889 0.11256,-1.41605 0,-0.52435 0.0552,-0.59481 0.46568,-0.59481 0.43961,0 0.45953,0.0371 0.35596,0.66377 -0.0603,0.36507 -0.11059,1.00229 -0.11167,1.41604 -0.002,0.69427 -0.0379,0.75228 -0.46852,0.75228 -0.45322,0 -0.46335,-0.0235 -0.35401,-0.82123 z m -4.67292,0.3525 c -0.22481,-0.0609 -0.25275,-0.28188 -0.1615,-1.27739 0.12093,-1.31937 0.26243,-1.68881 0.57326,-1.49671 0.11218,0.0693 0.42528,0.10919 0.69579,0.0886 0.38751,-0.0295 0.49183,0.0382 0.49183,0.31934 0,0.24028 -0.11706,0.35683 -0.35839,0.35683 -0.41798,0 -0.70364,0.6155 -0.70364,1.51607 0,0.3344 -0.0597,0.59875 -0.13276,0.58746 -0.073,-0.0113 -0.25508,-0.0537 -0.40459,-0.0942 z m -2.693,-0.25348 c -0.20041,-0.11672 -0.30976,-0.39626 -0.30976,-0.79182 0,-0.57506 0.0473,-0.62406 0.79652,-0.82444 0.99547,-0.26625 1.04937,-0.56746 0.072,-0.40233 -0.6412,0.10833 -0.71735,0.0851 -0.66205,-0.20204 0.13229,-0.68692 1.73725,-0.77161 2.05463,-0.10842 0.081,0.16922 0.11603,0.8055 0.0779,1.41395 -0.0594,0.94696 -0.11808,1.10629 -0.40764,1.10629 -0.18606,0 -0.33829,-0.0825 -0.33829,-0.18323 0,-0.12631 -0.10637,-0.12631 -0.34238,0 -0.41832,0.22387 -0.54472,0.22281 -0.94091,-0.008 z m 1.22221,-0.78998 c 0.13979,-0.36428 0.0351,-0.44124 -0.43342,-0.31871 -0.21479,0.0562 -0.39053,0.21232 -0.39053,0.34699 0,0.3348 0.69376,0.31099 0.82395,-0.0283 z m -3.3583,0.4944 c -0.0424,-0.073 -0.13735,-0.69032 -0.2109,-1.37179 l -0.13374,-1.23904 -0.35197,1.2928 c -0.305,1.12027 -0.40115,1.28562 -0.72052,1.23904 -0.31775,-0.0463 -0.41061,-0.28554 -0.67372,-1.73531 -0.39271,-2.16397 -0.39325,-2.12407 0.0286,-2.12407 0.42018,0 0.45981,0.0958 0.62229,1.50455 l 0.12249,1.06203 0.36177,-1.20331 c 0.30906,-1.02801 0.41557,-1.19562 0.73111,-1.15054 0.31495,0.045 0.3938,0.23494 0.53531,1.28944 l 0.16596,1.23667 0.36506,-1.14816 c 0.29257,-0.92019 0.44414,-1.1594 0.76332,-1.20473 0.21904,-0.0311 0.39826,-0.0172 0.39826,0.031 0,0.0482 -0.28824,0.89005 -0.64053,1.87087 -0.49316,1.37302 -0.71474,1.78333 -0.96308,1.78333 -0.17741,0 -0.35728,-0.0597 -0.39972,-0.13276 z m 9.79158,-2.34532 c 0,-0.23601 0.118,-0.35401 0.35401,-0.35401 0.23601,0 0.35401,0.118 0.35401,0.35401 0,0.23601 -0.118,0.35401 -0.35401,0.35401 -0.23601,0 -0.35401,-0.118 -0.35401,-0.35401 z m -2.54646,-4.34773 c -4.95395,-0.42134 -9.12489,-0.81125 -9.26876,-0.86646 -0.16124,-0.0619 -0.232,-0.25517 -0.18446,-0.50388 0.0424,-0.22192 1.4176,-2.47111 3.05594,-4.9982 1.63834,-2.5271 4.04589,-6.24043 5.3501,-8.25185 1.30421,-2.01142 2.50115,-3.70696 2.65988,-3.76787 0.15872,-0.0609 0.38957,-0.008 0.513,0.11702 0.29292,0.2973 8.032,17.99644 8.032,18.36905 0,0.39956 -0.35897,0.71357 -0.78767,0.68904 -0.19958,-0.0114 -4.41609,-0.36551 -9.37003,-0.78685 z m 8.32817,-1.1837 c -0.63929,-1.52454 -6.54122,-15.09748 -6.58813,-15.15102 -0.0295,-0.0337 -2.21553,3.17997 -4.85776,7.14152 -2.64223,3.96155 -4.77854,7.22197 -4.74736,7.24537 0.0312,0.0234 1.92854,0.18725 4.21634,0.36409 2.2878,0.17684 5.79251,0.45797 7.78825,0.62473 1.99574,0.16677 3.8089,0.31387 4.02925,0.3269 0.38463,0.0227 0.391,7e-4 0.15941,-0.55159 z m -8.92741,-1.34977 c -3.50343,-0.28491 -5.69367,-0.53298 -5.66418,-0.64154 0.0284,-0.10455 0.57344,-0.15226 1.33139,-0.11656 l 1.28329,0.0604 0.003,-0.50296 c 0.004,-0.69672 0.25601,-1.08431 0.46391,-0.71281 0.13352,0.23857 0.34206,0.19226 1.56948,-0.34853 0.77853,-0.34301 1.43883,-0.64652 1.46732,-0.67446 0.0285,-0.028 -0.25029,-0.23098 -0.61952,-0.45118 -0.66203,-0.39484 -0.68725,-0.39634 -1.82186,-0.10896 -0.6328,0.16027 -1.21028,0.29074 -1.28329,0.28992 -0.16257,-0.002 -0.17814,-1.31314 -0.0175,-1.47378 0.0634,-0.0634 0.20278,-0.002 0.30976,0.13546 0.16723,0.21554 0.34577,0.2105 1.27288,-0.0359 l 1.07836,-0.28664 0.85587,0.50158 0.85588,0.50157 0.4102,-0.51264 c 0.49402,-0.61738 0.50602,-0.72445 0.0958,-0.85464 -0.44155,-0.14015 -1.67906,-1.84375 -1.56162,-2.1498 0.16994,-0.44285 0.59298,-0.27202 1.18856,0.47996 0.31875,0.40246 0.90276,0.87645 1.29779,1.05331 l 0.71823,0.32156 0.24411,-0.4659 c 0.18474,-0.3526 0.20218,-0.64912 0.0717,-1.21939 -0.18813,-0.82215 -0.054,-1.23686 0.34995,-1.08186 0.27205,0.1044 0.48555,0.87913 0.48555,1.76191 0,0.61097 -1.24705,3.10328 -1.82392,3.64522 -0.21642,0.20333 -1.37338,0.76369 -2.571,1.24526 -1.19763,0.48156 -2.20986,0.90793 -2.24941,0.94748 -0.0396,0.0395 1.89724,0.21011 4.30399,0.37902 4.95607,0.34783 5.70345,0.43464 5.70345,0.66245 0,0.23356 -1.34254,0.17334 -7.74785,-0.34755 z m 2.08674,-6.30201 c -0.37754,-0.45492 0.0465,-1.19306 0.64434,-1.12161 0.6018,0.0719 0.92848,0.55854 0.66137,0.98515 -0.25616,0.4091 -1.01373,0.48827 -1.30571,0.13646 z m -1.19083,-15.8361 c -2.91948,-0.11602 -3.19686,-0.207 -4.02297,-1.31945 -0.31424,-0.42316 -0.35983,-0.71678 -0.32807,-2.11313 0.0203,-0.89193 0.0814,-1.86882 0.13587,-2.17086 l 0.099,-0.54916 2.67056,-0.12436 c 2.90753,-0.13539 7.72133,0.0328 7.87103,0.27505 0.0514,0.0831 0.73789,0.15111 1.5256,0.15111 h 1.43221 l -0.11527,1.75896 c -0.16387,2.50043 -0.50442,3.19536 -1.92221,3.92245 -0.71428,0.3663 -1.7754,0.39077 -7.34575,0.16939 z m 7.11744,-0.42981 c 0.47883,-0.20489 0.28905,-0.23891 -1.93079,-0.34603 -1.354,-0.0653 -3.0267,-0.11925 -3.71712,-0.11979 -1.52901,-0.001 -2.48172,-0.24464 -3.26169,-0.83342 -0.89302,-0.67413 -1.22876,-1.36785 -1.36485,-2.82021 -0.0829,-0.88434 -0.19542,-1.30154 -0.35112,-1.30154 -0.2673,0 -0.41993,0.81822 -0.48052,2.57607 -0.0466,1.35316 0.19277,1.94496 1.00109,2.47459 0.71457,0.46821 9.15352,0.77747 10.105,0.37033 z m 1.36427,-1.13286 c 0.18039,-0.30538 0.33739,-1.13584 0.41524,-2.19645 l 0.12519,-1.70542 -1.12936,-0.0896 c -0.62114,-0.0493 -2.28431,-0.18774 -3.69593,-0.30768 -1.64525,-0.13979 -3.3852,-0.17007 -4.84704,-0.0843 l -2.28045,0.13373 0.11614,1.2497 c 0.14011,1.50745 0.52616,2.19799 1.55968,2.7898 0.80793,0.46264 2.18435,0.58702 7.40482,0.66916 l 2.04165,0.0321 z m 11.9306,43.78206 c 0.0533,-0.13878 -0.0262,-1.19418 -0.17656,-2.34532 -0.5534,-4.23663 -1.00025,-7.71339 -1.7022,-13.24434 -1.1837,-9.32672 -1.55295,-12.21475 -2.03679,-15.9305 -0.25354,-1.94706 -0.53295,-4.13751 -0.62092,-4.86766 -0.42015,-3.48717 -1.60197,-12.6861 -1.66006,-12.92141 -0.036,-0.14603 -0.0759,1.44702 -0.0886,3.54011 -0.0127,2.0931 -0.17904,12.92584 -0.36965,24.07277 l -0.34656,20.26714 0.57037,0.56755 c 0.55818,0.55542 0.62521,0.57286 3.13695,0.81585 1.41162,0.13656 2.70847,0.25951 2.8819,0.27322 0.17342,0.0137 0.35889,-0.0886 0.41215,-0.22741 z"
           id="path43"
           clip-path="url(#clipPath52)"
           inkscape:label="path43" /><path
           style="fill:#ffa701;fill-opacity:1;stroke:#000000;stroke-width:0.263515;stroke-dasharray:none;stroke-opacity:1;paint-order:markers fill stroke"
           d="m 343.54466,766.23663 c -9.57308,-0.99434 -10.27093,-1.17794 -12.47751,-3.28287 l -1.74258,-1.66231 0.59034,-34.65169 c 1.29427,-75.97122 1.59571,-95.01038 1.78495,-112.74002 0.10847,-10.16194 0.29879,-19.96656 0.42294,-21.78804 l 0.22571,-3.31178 0.26957,1.91735 c 0.14826,1.05454 1.91852,14.93788 3.93391,30.85186 3.80955,30.08095 9.15346,71.91084 14.49646,113.4721 3.1836,24.76406 3.92695,31.29274 3.61961,31.79002 -0.25746,0.41659 -2.5865,0.29208 -11.1234,-0.59462 z"
           id="path59"
           transform="scale(0.26458333)"
           inkscape:label="path59" /><path
           style="fill:#ffa701;fill-opacity:1;stroke:#000000;stroke-width:0.263515;stroke-dasharray:none;stroke-opacity:1;paint-order:markers fill stroke"
           d="m 312.179,834.74597 c -13.75795,-2.03361 -13.78828,-2.04013 -14.86777,-3.19572 -0.51459,-0.55087 -2.12086,-3.31293 -3.56948,-6.1379 -3.9231,-7.65044 -4.87899,-9.06064 -6.42332,-9.47619 -3.43296,-0.92373 -38.86522,-5.59547 -42.43824,-5.59547 -2.82179,0 -3.50196,0.4579 -7.33186,4.936 -1.48057,1.73115 -3.4738,3.91717 -4.42941,4.85781 -1.54893,1.5247 -1.9036,1.71027 -3.26878,1.71027 -3.01877,0 -21.02478,-2.09617 -22.91223,-2.66733 -1.35517,-0.41009 -2.34713,5.67823 17.22965,-105.74994 18.28623,-104.08252 18.73295,-106.64082 21.78908,-124.78262 1.50367,-8.92603 2.82948,-15.82867 3.12766,-16.28376 1.22446,-1.86877 9.25519,-2.72397 29.27967,-3.11801 13.04935,-0.25679 21.33379,0.10676 32.4206,1.42275 7.22865,0.85802 16.34181,2.13642 17.86619,2.50626 l 0.78437,0.1903 -0.001,9.98471 c -0.002,19.09081 -3.10536,209.69574 -3.83206,235.36016 -0.4263,15.05542 -0.5573,16.63295 -1.41956,17.09442 -0.94599,0.50628 -2.15584,0.39987 -12.00346,-1.05574 z m -26.84286,-203.5901 c -0.34704,-0.38347 -1.03806,-0.69065 -1.53562,-0.68261 -0.86889,0.014 -0.85642,0.041 0.31549,0.68261 1.58557,0.86806 2.00571,0.86806 1.22013,0 z m 16.32279,-22.99553 c 1.90455,-0.20038 3.69653,-0.62328 4.70622,-1.11065 2.32693,-1.1232 4.73926,-3.51005 5.62245,-5.56307 0.80521,-1.87176 1.54933,-6.8673 1.92055,-12.89335 l 0.22749,-3.69275 -5.4129,-0.21139 c -2.9771,-0.11627 -5.71207,-0.3715 -6.07772,-0.56719 -1.32826,-0.71086 -8.84551,-1.10587 -20.44636,-1.07438 -6.51898,0.0177 -13.73297,0.14266 -16.03109,0.2777 l -4.17839,0.24553 -0.26152,1.39444 c -0.49292,2.62823 -0.73109,14.20831 -0.32283,15.69643 0.50869,1.85421 3.46091,5.14847 5.25845,5.86771 1.84428,0.73793 7.4689,1.24855 17.45273,1.58441 11.90279,0.40042 14.12347,0.40631 17.54292,0.0466 z"
           id="path68"
           transform="scale(0.26458333)"
           inkscape:label="path68" /></g></g><text
       xml:space="preserve"
       style="font-style:normal;font-variant:normal;font-weight:normal;font-stretch:normal;font-size:14.9261px;font-family:'Comic Sans MS';-inkscape-font-specification:'Comic Sans MS';text-align:center;text-anchor:middle;fill:#232323;fill-opacity:1;stroke-width:0.373387"
       x="89.691338"
       y="176.66074"
       id="text2"
       transform="matrix(1.046398,0.10009536,-0.11082877,0.94505776,0,0)"
       inkscape:label="tus"><tspan
         sodipodi:role="line"
         id="tspan2"
         style="font-style:normal;font-variant:normal;font-weight:bold;font-stretch:normal;font-family:'Comic Sans MS';-inkscape-font-specification:'Comic Sans MS Bold';fill:#232323;fill-opacity:1;stroke-width:0.373388"
         x="89.691338"
         y="176.66074">T</tspan><tspan
         sodipodi:role="line"
         style="font-style:normal;font-variant:normal;font-weight:bold;font-stretch:normal;font-family:'Comic Sans MS';-inkscape-font-specification:'Comic Sans MS Bold';fill:#232323;fill-opacity:1;stroke-width:0.373388"
         x="89.691338"
         y="195.31836"
         id="tspan3">U</tspan><tspan
         sodipodi:role="line"
         style="font-style:normal;font-variant:normal;font-weight:bold;font-stretch:normal;font-family:'Comic Sans MS';-inkscape-font-specification:'Comic Sans MS Bold';fill:#232323;fill-opacity:1;stroke-width:0.373388"
         x="89.691338"
         y="213.97598"
         id="tspan4">S</tspan></text></g></svg>
